<?xml version="1.0" encoding="UTF-8"?>
<svg xmlns="http://www.w3.org/2000/svg" viewBox="0 0 512 512" role="img" aria-label="AeiBi icon">
  <path fill="#42BDC9" transform="translate(55 0) scale(0.90)" d="M 342.22222 151.00043 C 328.22225 151.00043 315.2052 154.71668 306.07205 163.84983 C 296.9389 172.98298 293.22266 186.00002 293.22266 200 L 293.22266 325 L 293.22266 365 A 14 14 0 0 0 307.22222 378.99957 A 14 14 0 0 0 321.00477 365.81163 C 327.50122 367.97557 334.62184 368.99957 342.22222 368.99957 C 362.67673 368.99957 380.28655 364.31849 392.89062 352.86024 C 405.4947 341.402 411.22179 324.23329 411.22179 305 C 411.22179 287.95353 405.85891 272.18612 395.08247 260.33203 C 390.75974 255.57704 385.67712 251.52832 379.98264 248.06207 C 381.34925 246.80477 382.78549 245.61619 384.00825 244.21875 C 392.12593 234.94139 396.22179 222.7222 396.22179 210 C 396.22179 192.92596 392.43009 177.91261 382.68446 166.94878 C 372.93883 155.98495 358.18052 151.00043 342.22222 151.00043 z M 55 151.00477 A 14.0014 14.0014 0 0 0 41.512587 161.25434 C 24.838795 221.27998 6.4999079 287.96677 -13.504774 361.31727 A 14 14 0 0 0 -3.6827257 378.50694 A 14 14 0 0 0 13.504774 368.68273 C 19.352653 347.24051 24.746715 327.62101 30.138889 308.0013 A 14 14 0 0 0 32.764757 306.64931 C 49.180508 295.70547 60.819492 295.70547 77.235243 306.64931 A 14 14 0 0 0 79.861111 308.0013 C 85.253285 327.62101 90.647347 347.24051 96.495226 368.68273 A 14 14 0 0 0 113.68273 378.50694 A 14 14 0 0 0 123.50694 361.31727 C 103.50226 287.96677 85.161205 221.27998 68.487413 161.25434 A 14.0014 14.0014 0 0 0 55 151.00477 z M 342.22222 178.99957 C 352.93053 178.99957 358.17231 181.51508 361.75998 185.55122 C 365.34766 189.58735 368.22266 197.0741 368.22266 210 C 368.22266 217.27776 366.48515 221.7253 362.9362 225.78125 C 359.38724 229.8372 353.26547 233.71328 343.37674 236.53863 A 14.0014 14.0014 0 0 0 343.95399 263.61328 C 358.77564 267.17048 368.47179 272.68962 374.36198 279.16884 C 380.25217 285.64804 383.22266 293.37987 383.22266 305 C 383.22266 319.09998 379.78305 326.93137 374.05382 332.13976 C 368.32459 337.34815 358.43431 341.00043 342.22222 341.00043 C 332.55557 341.00043 327.41428 338.86937 325.08247 336.87066 C 322.75065 334.87196 321.22179 332.27776 321.22179 325 L 321.22179 200 C 321.22179 190.66669 323.3389 186.18367 325.8724 183.65017 C 328.40589 181.11668 332.88891 178.99957 342.22222 178.99957 z M 55 217.79514 C 60.053168 236.08108 65.185133 254.68756 70.349392 273.41797 C 65.281633 272.18541 60.141942 271.55816 55 271.55816 C 49.858058 271.55816 44.718367 272.18541 39.650608 273.41797 C 44.814867 254.68756 49.946832 236.08108 55 217.79514 z M 257.22222 226.33247 A 12 12 0 0 0 245.22135 238.33333 A 12 12 0 0 0 257.22222 250.3342 A 12 12 0 0 0 269.22309 238.33333 A 12 12 0 0 0 257.22222 226.33247 z M 450 244.11024 A 12 12 0 0 0 437.99913 256.11111 A 12 12 0 0 0 450 268.11198 A 12 12 0 0 0 462.00087 256.11111 A 12 12 0 0 0 450 244.11024 z M 178.01649 252.28516 C 158.40207 252.07811 140.85121 262.34106 131.0395 277.18533 C 125.11653 286.14625 120.60657 299.24415 120.04123 315.47092 C 119.4759 331.6977 125.63443 352.43968 145.19314 362.07899 C 161.29929 370.01674 176.23366 372.2303 189.22309 368.75 C 202.21252 365.2697 211.76967 357.11529 220.2105 348.69792 A 14 14 0 0 0 220.23872 328.89974 A 14 14 0 0 0 200.43837 328.8737 C 193.24801 336.04407 187.47752 340.2292 181.97483 341.70356 C 176.47213 343.17791 169.7485 342.96413 157.56944 336.96181 C 152.7279 334.5757 150.32587 331.28076 149.10156 327.05946 A 14 14 0 0 0 153.77604 328.20095 C 188.19192 327.44819 209.43563 317.05201 216.89453 299.30339 C 224.35343 281.55475 214.39727 262.47436 198.10981 256.20009 C 191.32413 253.5861 184.55464 252.35417 178.01649 252.28516 z M 257.22222 267.6671 A 14 14 0 0 0 243.22266 281.66667 L 243.22266 361.66667 A 14 14 0 0 0 257.22222 375.66623 A 14 14 0 0 0 271.22179 361.66667 L 271.22179 281.66667 A 14 14 0 0 0 257.22222 267.6671 z M 450 272.11155 A 14 14 0 0 0 436.00043 286.11111 L 436.00043 366.11111 A 14 14 0 0 0 450 380.11068 A 14 14 0 0 0 463.99957 366.11111 L 463.99957 286.11111 A 14 14 0 0 0 450 272.11155 z M 175.25391 279.9197 C 175.8634 279.89994 176.48427 279.90225 177.11372 279.92622 C 180.47075 280.05405 184.11189 280.81573 188.0447 282.33073 C 190.20417 283.1626 192.17466 285.85698 191.0829 288.45486 C 189.99113 291.05274 182.20598 299.5731 153.16406 300.20833 A 14 14 0 0 0 151.19358 300.78342 C 152.54523 296.65769 153.95492 293.29208 154.3967 292.6237 C 159.20967 285.34211 166.11149 280.21617 175.25391 279.9197 z " />
</svg>
